Simulation
nRows=16
nColumns=15
endheader
time  TH_x TH_y TH_z SC_y  SC_z  SC_x  AC_y  AC_z  AC_x  GH_y  GH_z  GH_yy  EL_x  PS_y
0.0  0.000000  0.000000  0.000000  -30.65235033019303  -1.7119557209312513  11.797933601107076  57.06077216959431  -6.469961057403404  -12.91624363260122  17.82185119259003  -3.9909140237734553  6.172684869000282  25.52312963946787  0.000000
0.015  0.000000  0.000000  0.000000  -30.754616531749285  -1.7815715896064475  11.849438450641383  57.09663755994463  -6.427789465042522  -12.939031428335676  17.742714039403708  -3.742816088690497  6.071918080720424  25.54368529410366  0.000000
0.03  0.000000  0.000000  0.000000  -30.72428544989996  -1.760799842661341  11.910961038008757  57.14944627402672  -6.442447189619045  -12.936957178920263  17.760126081710506  -3.451377273457589  6.002523589729245  25.554595065507662  0.000000
0.045  0.000000  0.000000  0.000000  -30.742406243634903  -1.7273797925933874  11.987821795370081  57.174968138660226  -6.468283411093088  -12.94022902334457  17.833678779083982  -3.1047745360013237  5.887585004972141  25.538910827012216  0.000000
0.06  0.000000  0.000000  0.000000  -30.774557942725487  -1.6990224297407153  12.074750629735158  57.187190121259135  -6.506193489485723  -12.956878509762946  17.911601995348654  -2.7111351633038283  5.671578698980985  25.507725077218094  0.000000
0.075  0.000000  0.000000  0.000000  -30.82644106797198  -1.6733061741115072  12.174916866478057  57.20697654081165  -6.5554839217802545  -12.980978829757934  18.01273497740079  -2.2664210660910302  5.37778672980506  25.460486385316777  0.000000
0.09  0.000000  0.000000  0.000000  -30.880247332551228  -1.6463125143614874  12.290359428677714  57.220124503008634  -6.609718738185638  -13.012593217486694  18.127958983120287  -1.7855236056908164  5.0063283745695975  25.406579311951226  0.000000
0.105  0.000000  0.000000  0.000000  -30.934996012259205  -1.6158838100794888  12.419154340863194  57.237896732079854  -6.67073860135221  -13.048326204287246  18.255748564476704  -1.26431620269734  4.5680043493982305  25.345466825673494  0.000000
0.12  0.000000  0.000000  0.000000  -30.98989482384718  -1.5815194900124947  12.561161732750762  57.255820514876454  -6.7330472668439265  -13.089100565292853  18.393342062652934  -0.7078636292808244  4.072065796652868  25.282056275253133  0.000000
0.135  0.000000  0.000000  0.000000  -31.042945369208113  -1.5423613168116928  12.714683226775  57.2748964842873  -6.7956227561214435  -13.133023008498702  18.53655857632229  -0.11761650930801235  3.5263285187612206  25.214446027410034  0.000000
0.15  0.000000  0.000000  0.000000  -31.094464788122664  -1.4991447218179224  12.877935250260196  57.29632129929623  -6.855437494738994  -13.18056680216653  18.682486557349606  0.5045173873799125  2.9392060797079234  25.144904975884398  0.000000
0.16499999999999998  0.000000  0.000000  0.000000  -31.143644190333088  -1.4516533115431831  13.049535344220153  57.31860088549132  -6.910207784704983  -13.230663050129055  18.828909614801407  1.1551948915048966  2.318790137895597  25.072465032768353  0.000000
0.18  0.000000  0.000000  0.000000  -31.190097447288405  -1.4004748852143094  13.227144669750476  57.343186221752475  -6.958068113166913  -13.282966478823612  18.97277270961129  1.8323182199442472  1.6716181798184038  24.997840772010367  0.000000
0.195  0.000000  0.000000  0.000000  -31.233998855834738  -1.3460898957580154  13.409607566130376  57.36905101917137  -6.997041308156386  -13.33731953629524  19.112741830189712  2.532669499311914  1.004932032352129  24.921097230144465  0.000000
0.21  0.000000  0.000000  0.000000  -31.2751555894013  -1.2890644155929603  13.596620549617176  57.397532005823955  -7.02739018818978  -13.393558309019934  19.246681756649203  3.2538537337038953  0.3241831007509017  24.84248154878135  0.000000
0.22499999999999998  0.000000  0.000000  0.000000  -31.313996421761686  -1.2298476214270422  13.787709839616861  57.4290389223873  -7.048504609762525  -13.45071390715249  19.37453820391982  3.993119140609094  -0.36429283860557243  24.76183777888145  0.000000
